<svg xmlns="http://www.w3.org/2000/svg" fill="none"
    viewBox="0 0 32 32">
    <path fill="currentColor"
        d="M20.0332 18.8322h-6.53c-.203 0-.3858.1227-.4627.3106l-1.2881 3.1468c-.0769.1879-.2598.3106-.4628.3106h-1.1271c-.35993 0-.60196-.3689-.45862-.6991L15.5211 8.50109c.0793-.18269.2594-.30089.4586-.30089h1.2278c.1991 0 .3791.11802.4585.30052l5.8301 13.39998c.1436.3303-.0984.6995-.4585.6995h-1.1152c-.2018 0-.3839-.1214-.4615-.3077l-1.4361-3.4477c-.0025-.006.0019-.0126.0084-.0126Zm-5.9246-2.2391c-.1362.3292.1058.6911.462.6911h4.0731c.3562 0 .5982-.3619.462-.6911l-2.0365-4.9238c-.1703-.4119-.7537-.4119-.924 0l-2.0366 4.9238Z"
    />
</svg>