<svg xmlns="http://www.w3.org/2000/svg" fill="none"
    viewBox="0 0 32 32">
    <path stroke="currentColor" stroke-linecap="round" stroke-linejoin="round"
        d="M23.8169 17.6098c-.0799-.2167-.0913-.2623-.2966-.1711-.1141-.0798-.251-.1597-.3537-.251-.2624-.2509-.2738-.5704-.251-.8898 0-.0456.0229-.0912.0457-.1141.1483-.1026.1026-.2623.1369-.3764h-.4335c-.6275 0-1.2549-.0228-1.871-.0343-.0684 0-.1483.0229-.1597-.0912-.0114-.2966-.0228-.5818-.057-.8784 0-.0799-.0457-.1712-.0913-.2282-.1027-.1369-.2281-.2624-.365-.4221h.4335c-.0114-.2966.0228-.5818-.1483-.8442-.1141-.1825-.2966-.4107-.0229-.6274-.0342-.0571-.0798-.1027-.0798-.1483 0-.1484-.1027-.1712-.2168-.2054-.114-.0342-.2509-.0684-.3194-.1483-.1939-.2053-.4221-.1483-.6503-.1483-.2053 0-.4106 0-.616.0114-.0228 0-.0456-.0228-.0684-.0456-.1255-.1483-.2396-.308-.3651-.4678-.0228-.0228-.057-.0342-.0799-.0342-.1026-.0228-.2167-.0228-.308-.057-.0912-.0342-.2053-.1483-.2738-.1255-.1825.0684-.2167-.1027-.3194-.1597-.0798-.0457-.1711-.1141-.2167-.194-.0571-.1026-.1141-.114-.2168-.0912-.0684.0114-.1483 0-.2168-.0228-.0798-.0343-.1254-.1141-.2053-.1598-.1027-.057-.2396-.1369-.3308-.114-.1712.0684-.3195.1255-.502.0228-.0228-.0114-.057-.0114-.0798 0-.1255.0456-.2168 0-.2967-.0913-.0798-.1141-.1597-.2053-.2852-.2852-.1483-.1027-.2737-.22815-.4449-.23955-.0456-.1369-.2852-.62745-.3878-.73012-.0229-.01141-.0343-.05704-.0343-.07986.0228-.1483-.0798-.29661.0457-.44491.1369-.18253-.0457-.37647-.1141-.52477-.0799-.20535-.0342-.33084.0456-.47914.0342-.05704.0685-.12549.0685-.19394 0-.1369 0-.2852-.0343-.4221-.0228-.07986-.3422 0-.4221-.04563-.2281-.11408-.4563-.02282-.6844-.02282-.1483 0-.2852.05704-.4335.10267-.0685.02282-.1484.04564-.2054.07986-.2053.14831-.3879.31943-.6046.45632-.0799.05704-.2054.03423-.2738.09127-.1597.11408-.3194.25098-.4563.39928-.0571.06845-.0913.07986-.1712.04563-.1483-.06844-.365-.04563-.3878.05704-.0913.33084-.3765.4221-.6503.52478-.10267.04563-.20534.06844-.26238-.06845 0-.02282-.06845-.04564-.11408-.04564-.07986-.02281-.17112-.03422-.26239-.04563-.21675-.03422-.4221-.05704-.67307-.09126.03422.06845.04563.09126.04563.11408.33083.55899.65026 1.1294.9925 1.68839.11408.1939.21675.4221.06845.5932-.15971.194-.15971.3879-.15971.5932 0 .2624-.02282.5362-.22817.7188.04564.0912.12549.1825.10268.2281-.05704.1141-.01141.1825.05704.2624.05704.0684.07985.1483.12549.2396-.14831.0114-.28521.0114-.25098.2053 0 0-.03423.0456-.04563.0685-.06845.1711-.30802.2281-.2738.4563 0 0-.02281.0228-.03422.0342-.14831.0571-.12549.1825-.06845.2738.04563.0913.12549.1597.18253.251.03422.057.05704.1369.03422.1825-.04563.0913-.11408.1711-.17112.251-.07985.1027-.1483.2053-.07985.3536.04563.1027.05704.2168.07985.3195.05704.2281.1369.2852.37647.3194.10267 0 .19394.0913.2852.1483v.057c-.2852.0457-.34224.2054-.29661.3765-.10267.1141-.18253.1939-.25098.2738-.09126.1141-.1483.2396-.25097.3422-.09127.0913-.20535.1483-.31943.2282.15211.1141.23196.2548.23957.4221 0 0 0 .1027.03422.1255.18253.1711.17112.4905.47914.559v.0342l-.05704.0685c.03423.1597.07986.2852.10267.4106.02282.1027.02282.2168.04564.3195.02281.1255.05704.251.07985.3764.01141.0571.02282.1255.06845.1598.17112.1483.34224.2737.52477.4106.07986.0571.10268.1141.03423.194-.10268.1255-.19394.251-.2852.365.05704.1141.23956.1255.18252.3195-.05704.1825-.25097.057-.30801.1825.07985.0684.12549.308.07985.3651-.09126.1026-.03422.1483.05704.2053.09127.057.18253.1141.2738.1711-.19394.2054-.15972.3423.04563.4449 0 0 .02282 0 .02282.0229.10267.2053.31943.365.28523.6274 0 .1483 0 .2852.0912.4221.0457.057.0343.1597.0571.251 0 .057 0 .1141.0342.1711.0342.0913.1027.1597.1255.251.0228.0912 0 .2167.0342.2966.1255.2053.0571.4221.0685.6502.2966.0913.5932.0685.8556-.0684.2167-.1141.2509-.4449.5361-.5134.0229 0 .0343-.057.0343-.0912 0-.1826.1255-.251.2852-.2852.057-.0114.1141-.0343.1711-.0457.1369-.0342.2282-.0912.2053-.2624 0-.0798.0343-.1597.0571-.2623.0798.0456.1483.0684.2053.114.1369.1027.2624.2168.3879.3195.0342.0228.0799.0342.1255.0228.2624-.0114.5248-.0342.7871-.0342.0913 0 .194.0456.2852.0798.0799.0228.1598.0685.2396.0913.0913.0342.502.7415.5248.6731.1141-.2624.2281-.5134.3536-.7758.0685-.1369.1712-.1939.3423-.1825.3308.0114.6502 0 .9811 0 .0798 0 .2053.0456.1939.057.0685.1027.1369.194.2168.2966.0228 0 .0342-.0114.057-.0228.0913-.3194.1597-.6503.2852-.9583.1597-.4107.2168-.8214.2054-1.2663 0-.0684.0228-.1483.057-.2167.1597-.308.4221-.5704.5134-.9241.0684-.2395.2509-.3536.5133-.3764.4107-.0457.8328-.1255 1.2435-.2054.2396-.0456.4563-.1711.6959-.1939.3879-.0342.7757 0 1.1636 0 .0228 0 .0571 0 .0799.0228.3308.2053.6502.4221.9811.6274.1026.0571.1255.1483.1255.2624 0 .0913.0342.1826.057.2852.1255-.0684.2167-.1026.2966-.1597.0228-.0114.0228-.1027 0-.1369-.0342-.0456-.0913-.0798-.1369-.1141-.1141-.0798-.1369-.1597-.0684-.2966.114-.2281.1825-.4791.308-.6845.0912-.1483.1255-.2738.1369-.4449.0114-.2395.1255-.4791.2053-.7073.0228-.057.0799-.0912.1255-.1597-.2624-.1825-.2738-.5019-.3765-.7871h.0457v-.0115Z"
    />
</svg>