<svg xmlns="http://www.w3.org/2000/svg" fill="none" viewBox="0 0 25 16">
    <path fill="currentColor"
        d="M1.36078 2.06016c-.449999 0-.809999-.43-.809999-.95 0-.520003.36-.950004.809999-.950004H23.5008c.45 0 .81.430001.81.950004 0 .52-.36.95-.81.95H1.36078ZM1.36078 8.60996c-.449999 0-.809999-.43-.809999-.95s.36-.95.809999-.95H23.5008c.45 0 .81.43.81.95s-.36.95-.81.95H1.36078ZM1.36078 15.1603c-.449999 0-.809999-.43-.809999-.95s.36-.95.809999-.95H23.5008c.45 0 .81.43.81.95s-.36.95-.81.95H1.36078Z"
        class="content" />
</svg>