<svg xmlns="http://www.w3.org/2000/svg" fill="none"
    viewBox="0 0 32 32">
    <path stroke="currentColor" stroke-linecap="round" stroke-linejoin="round"
        d="M17.7778 13.8333h-5.9445V9.66667H18.5v2.50003c0 .4555.3778.8333.8333.8333h2.5m-11.6666 6.6667V15.5h1.2444c.6889 0 1.2445.5556 1.2445 1.2444 0 .6889-.5556 1.2445-1.2445 1.2445h-1.2444m7.5 1.6667v-4.1667h2.5m-2.5 1.6667h2.1666m-8 4.1666h10M11.8333 8c-.9111 0-1.6666.75556-1.6666 1.66667v4.16663c-.92226 0-1.6667.7445-1.6667 1.6667v4.1667c0 .9222.74444 1.6666 1.6667 1.6666V23c0 .9111.7555 1.6667 1.6666 1.6667h10c.9111 0 1.6667-.7556 1.6667-1.6667V12.5111c0-.2222-.0889-.4333-.2444-.5889l-3.6778-3.67776C19.4222 8.08889 19.2111 8 18.9889 8h-7.1556Zm1.9223 7.4889v3.7778h.7777c.8 0 1.7556-.2445 1.7556-1.4v-.9778c0-1.1667-.9445-1.4-1.7445-1.4h-.8.0112Z"
        class="stroke-content" />
</svg>